<svg id="SvgjsSvg1075" width="288" height="288" xmlns="http://www.w3.org/2000/svg" version="1.1" xmlns:xlink="http://www.w3.org/1999/xlink" xmlns:svgjs="http://svgjs.com/svgjs"><defs id="SvgjsDefs1076"></defs><g id="SvgjsG1077"><svg xmlns="http://www.w3.org/2000/svg" style="-ms-transform:rotate(360deg);-webkit-transform:rotate(360deg)" width="288" height="288" transform="rotate(360)" viewBox="0 0 512 512"><path fill="#5ee8d1" d="M479.6 399.716l-81.084-81.084l-62.368-25.767A175.014 175.014 0 0 0 368 192c0-97.047-78.953-176-176-176S16 94.953 16 192s78.953 176 176 176a175.034 175.034 0 0 0 101.619-32.377l25.7 62.2l81.081 81.088a56 56 0 1 0 79.2-79.195zM48 192c0-79.4 64.6-144 144-144s144 64.6 144 144s-64.6 144-144 144S48 271.4 48 192zm408.971 264.284a24.028 24.028 0 0 1-33.942 0l-76.572-76.572l-23.894-57.835l57.837 23.894l76.573 76.572a24.028 24.028 0 0 1-.002 33.941z" class="color626262 svgShape"></path><rect width="512" height="512" fill="rgba(0, 0, 0, 0)" class="colorrgba0000 svgShape"></rect></svg></g></svg>